<svg xmlns="http://www.w3.org/2000/svg" width="83" height="83" viewBox="0 0 24 24"><g fill="none" fill-rule="evenodd"><path d="m12.593 23.258l-.011.002l-.071.035l-.02.004l-.014-.004l-.071-.035q-.016-.005-.024.005l-.004.01l-.017.428l.005.02l.01.013l.104.074l.015.004l.012-.004l.104-.074l.012-.016l.004-.017l-.017-.427q-.004-.016-.017-.018m.265-.113l-.013.002l-.185.093l-.01.01l-.003.011l.018.43l.005.012l.008.007l.201.093q.019.005.029-.008l.004-.014l-.034-.614q-.005-.018-.02-.022m-.715.002a.02.02 0 0 0-.027.006l-.006.014l-.034.614q.001.018.017.024l.015-.002l.201-.093l.01-.008l.004-.011l.017-.43l-.003-.012l-.01-.01z"/><path fill="#0a0a0a" d="M4 5a3 3 0 0 1 3-3h10a3 3 0 0 1 3 3v16a1 1 0 0 1-1.625.78l-1.875-1.5l-1.875 1.5a1 1 0 0 1-1.332-.073L12 20.414l-1.293 1.293a1 1 0 0 1-1.332.074L7.5 20.28l-1.875 1.5A1 1 0 0 1 4 21zm3-1a1 1 0 0 0-1 1v13.92l.875-.7a1 1 0 0 1 1.25 0l1.8 1.44l1.368-1.367a1 1 0 0 1 1.414 0l1.367 1.367l1.801-1.44a1 1 0 0 1 1.25 0l.875.7V5a1 1 0 0 0-1-1zm1 5a1 1 0 0 1 1-1h6a1 1 0 1 1 0 2H9a1 1 0 0 1-1-1m1 3a1 1 0 1 0 0 2h3a1 1 0 1 0 0-2z"/></g></svg>